<svg xmlns="http://www.w3.org/2000/svg" xmlns:xlink="http://www.w3.org/1999/xlink" width="197.724" height="69.501" viewBox="0 0 197.724 69.501">
  <defs>
    <linearGradient id="linear-gradient" x1="0.5" y1="1" x2="0.5" gradientUnits="objectBoundingBox">
      <stop offset="0" stop-color="#996200"/>
      <stop offset="0.174" stop-color="#c29c33"/>
      <stop offset="0.265" stop-color="#d5b64b"/>
      <stop offset="0.518" stop-color="#be932d"/>
      <stop offset="0.66" stop-color="#b68622"/>
      <stop offset="0.723" stop-color="#b98a26"/>
      <stop offset="0.796" stop-color="#c29834"/>
      <stop offset="0.873" stop-color="#d1ae4b"/>
      <stop offset="0.954" stop-color="#e5ce6b"/>
      <stop offset="1" stop-color="#f4e482"/>
    </linearGradient>
    <linearGradient id="linear-gradient-3" x1="0.611" y1="0.445" x2="0.4" y2="0.818" gradientUnits="objectBoundingBox">
      <stop offset="0"/>
      <stop offset="0.997" stop-color="#fff" stop-opacity="0"/>
    </linearGradient>
    <linearGradient id="linear-gradient-5" x1="0.505" y1="0.385" x2="0.852" y2="0.633" xlink:href="#linear-gradient-3"/>
  </defs>
  <g id="logo" transform="translate(-223.467 -173.969)">
    <g id="Group_3" data-name="Group 3" transform="translate(275.926 189.353)">
      <g id="Group_1" data-name="Group 1">
        <path id="Path_1" data-name="Path 1" d="M282.037,215.781l-7.347-26.242h7.235l4.048,16.532,4.686-16.532h5.285l4.685,16.532,4.087-16.532h7.2l-7.31,26.242H297.52l-4.2-14.808-4.2,14.808Z" transform="translate(-274.69 -188.978)" fill="#fff"/>
        <path id="Path_2" data-name="Path 2" d="M311.442,189.539h6.71v26.242h-6.71Z" transform="translate(-273.803 -188.978)" fill="#fff"/>
        <path id="Path_3" data-name="Path 3" d="M329.192,216.356a12.51,12.51,0,0,1-6.9-1.76,9.312,9.312,0,0,1-3.823-4.762l5.736-3.336a5.209,5.209,0,0,0,5.173,3.486q3.074,0,3.073-1.747,0-1.151-1.773-1.858-.747-.309-3.288-1.044a14.394,14.394,0,0,1-5.7-2.943,6.725,6.725,0,0,1-2.1-5.266,7.4,7.4,0,0,1,2.605-5.887,9.606,9.606,0,0,1,6.5-2.248,11.1,11.1,0,0,1,5.848,1.536,9.886,9.886,0,0,1,3.9,4.461l-5.622,3.3a4.219,4.219,0,0,0-4.087-2.925,2.877,2.877,0,0,0-1.818.491,1.521,1.521,0,0,0-.618,1.244,1.741,1.741,0,0,0,.916,1.47,15.318,15.318,0,0,0,3.573,1.394l3.056,1.1a12.394,12.394,0,0,1,2.573,1.343,5.673,5.673,0,0,1,2.065,2.357,7.907,7.907,0,0,1,.676,3.384,7.279,7.279,0,0,1-2.737,6.036A11.287,11.287,0,0,1,329.192,216.356Z" transform="translate(-273.634 -188.991)" fill="#fff"/>
        <path id="Path_4" data-name="Path 4" d="M349.909,189.539a12.152,12.152,0,0,1,9.09,3.768,13.8,13.8,0,0,1,0,18.707,12.152,12.152,0,0,1-9.09,3.768H339.224V189.539Zm0,19.756a5.871,5.871,0,0,0,4.46-1.818,7.589,7.589,0,0,0,0-9.634,5.868,5.868,0,0,0-4.46-1.819h-3.786V209.3Z" transform="translate(-273.133 -188.978)" fill="#fff"/>
        <path id="Path_5" data-name="Path 5" d="M385.845,212.4a14.036,14.036,0,0,1-19.531,0,13.848,13.848,0,0,1,0-19.455,14.033,14.033,0,0,1,19.531,0,13.846,13.846,0,0,1,0,19.455Zm-14.826-4.611a7.479,7.479,0,1,0-2.025-5.117A6.9,6.9,0,0,0,371.019,207.791Z" transform="translate(-272.576 -188.991)" fill="#fff"/>
        <path id="Path_6" data-name="Path 6" d="M417.164,189.539v26.242H410.49V201.648l-6.372,10.534h-.675l-6.335-10.5v14.1H390.4V189.539h6.711l6.671,11.209,6.711-11.209Z" transform="translate(-271.899 -188.978)" fill="#fff"/>
      </g>
      <g id="Group_2" data-name="Group 2" transform="translate(0.669 31.776)">
        <path id="Path_7" data-name="Path 7" d="M283.265,242.359a9.045,9.045,0,0,1-5.09-1.376,6.806,6.806,0,0,1-2.832-3.73l1.424-.835a5.776,5.776,0,0,0,2.243,3.186,7.169,7.169,0,0,0,4.255,1.177,6.031,6.031,0,0,0,4.038-1.207,3.928,3.928,0,0,0,1.408-3.127,3.165,3.165,0,0,0-1.362-2.754,16.382,16.382,0,0,0-4.238-1.888l-1.526-.557-1.38-.5a7.065,7.065,0,0,1-1.333-.607q-.435-.278-1.037-.742a3.349,3.349,0,0,1-.881-.944,5.88,5.88,0,0,1-.5-1.145,4.723,4.723,0,0,1-.217-1.469,5.272,5.272,0,0,1,1.872-4.225,6.984,6.984,0,0,1,4.688-1.594,7.313,7.313,0,0,1,4.332,1.269,7.435,7.435,0,0,1,2.629,3.28l-1.392.773A5.579,5.579,0,0,0,282.8,221.6a5.18,5.18,0,0,0-3.559,1.176,3.821,3.821,0,0,0-1.33,3,2.99,2.99,0,0,0,1.237,2.628,16.438,16.438,0,0,0,4.055,1.794l2.79,1.043a12.292,12.292,0,0,1,2.177,1.108,4.573,4.573,0,0,1,1.686,1.735,4.981,4.981,0,0,1,.525,2.338,5.338,5.338,0,0,1-1.949,4.316A7.81,7.81,0,0,1,283.265,242.359Z" transform="translate(-275.343 -220.018)" fill="#fff"/>
        <path id="Path_8" data-name="Path 8" d="M306.632,220.35,298.741,233.1v8.912H297.1V233.1l-7.89-12.748h1.856l6.873,11.161,6.836-11.161Z" transform="translate(-275.008 -220.01)" fill="#fff"/>
        <path id="Path_9" data-name="Path 9" d="M321.875,220.35h1.64v21.66h-1.454l-12.779-18.637V242.01h-1.641V220.35h1.364l12.87,18.716Z" transform="translate(-274.564 -220.01)" fill="#fff"/>
        <path id="Path_10" data-name="Path 10" d="M335.026,220.35a9.523,9.523,0,0,1,7.318,3.141,11.666,11.666,0,0,1,0,15.379,9.522,9.522,0,0,1-7.318,3.14h-8.138V220.35Zm0,20.114a7.955,7.955,0,0,0,6.189-2.677,10.247,10.247,0,0,0,0-13.212,7.959,7.959,0,0,0-6.189-2.677h-6.5v18.566Z" transform="translate(-274.099 -220.01)" fill="#fff"/>
        <path id="Path_11" data-name="Path 11" d="M347.343,220.35h1.641v21.66h-1.641Z" transform="translate(-273.606 -220.01)" fill="#fff"/>
        <path id="Path_12" data-name="Path 12" d="M362.744,242.359a11.171,11.171,0,1,1,5.447-20.933,10.053,10.053,0,0,1,3.836,3.79l-1.454.836a8.2,8.2,0,0,0-3.187-3.233,9.074,9.074,0,0,0-4.642-1.223,9.252,9.252,0,0,0-6.915,2.769,9.951,9.951,0,0,0,0,13.646,9.256,9.256,0,0,0,6.915,2.769,9.151,9.151,0,0,0,4.673-1.238,8.131,8.131,0,0,0,3.218-3.311l1.454.836a9.89,9.89,0,0,1-3.836,3.852A10.869,10.869,0,0,1,362.744,242.359Z" transform="translate(-273.506 -220.018)" fill="#fff"/>
        <path id="Path_13" data-name="Path 13" d="M388.2,242.01l-2.114-5.508H375.238l-2.112,5.508h-1.733l8.416-21.66h1.733l8.387,21.66Zm-12.364-7.055h9.656l-4.83-12.585Z" transform="translate(-273.026 -220.01)" fill="#fff"/>
        <path id="Path_14" data-name="Path 14" d="M402.9,220.35V221.9H396.1V242.01h-1.671V221.9h-6.807V220.35Z" transform="translate(-272.634 -220.01)" fill="#fff"/>
        <path id="Path_15" data-name="Path 15" d="M406,240.464h10.83v1.546h-12.47V220.35h12.315V221.9H406v8.416h9.9v1.547H406Z" transform="translate(-272.23 -220.01)" fill="#fff"/>
      </g>
    </g>
    <g id="Group_4" data-name="Group 4" transform="translate(223.467 173.969)">
      <path id="Path_16" data-name="Path 16" d="M230.953,220.97V202.925l-7.486-8.357v43.544L249.4,212.4l-5.425-5.208Z" transform="translate(-223.467 -173.472)" fill="url(#linear-gradient)"/>
      <path id="Path_17" data-name="Path 17" d="M262.581,195.3l-6.535,6.379v19.489l-3.689,6.293,10.224,10.958Z" transform="translate(-222.77 -173.455)" fill="url(#linear-gradient)"/>
      <path id="Path_18" data-name="Path 18" d="M245.979,215.069l-5.425-5.208-1.4,1.478Z" transform="translate(-223.089 -173.103)" opacity="0.4" fill="url(#linear-gradient-3)" style="mix-blend-mode: multiply;isolation: isolate"/>
      <path id="Path_19" data-name="Path 19" d="M233.52,193.5l9.873-9.873,9.764,9.764-6.184,6.184,4.882,4.882,11.012-11.012-19.474-19.474-19.2,19.2,13.779,14.864,5.425,5.208,9.764,9.656-9.819,9.819-5.872-5.593-5.045,5.045,11.188,10.909,14.755-14.755,4.993-5.341Z" transform="translate(-223.45 -173.969)" fill="url(#linear-gradient)"/>
      <path id="Path_20" data-name="Path 20" d="M255.122,229.664l7.436-7.862-4.967,10.349" transform="translate(-222.703 -172.815)" opacity="0.4" fill="url(#linear-gradient-5)" style="mix-blend-mode: multiply;isolation: isolate"/>
    </g>
  </g>
</svg>
